<mxfile host="app.diagrams.net" agent="Mozilla/5.0 (Windows NT 10.0; Win64; x64) AppleWebKit/537.36 (KHTML, like Gecko) Chrome/127.0.0.0 Safari/537.36" version="24.7.6">
  <diagram name="Trang-1" id="GQM9o380WNjzAa4fADyT">
    <mxGraphModel dx="2261" dy="833" grid="1" gridSize="10" guides="1" tooltips="1" connect="1" arrows="1" fold="1" page="1" pageScale="1" pageWidth="827" pageHeight="1169" math="0" shadow="0">
      <root>
        <mxCell id="0" />
        <mxCell id="1" parent="0" />
        <mxCell id="Jx5W27o9Ek6RV-WZzhhY-84" value="" style="rounded=0;whiteSpace=wrap;html=1;" parent="1" vertex="1">
          <mxGeometry x="185" y="67" width="1418" height="743" as="geometry" />
        </mxCell>
        <mxCell id="Jx5W27o9Ek6RV-WZzhhY-85" value="" style="shape=cylinder3;whiteSpace=wrap;html=1;boundedLbl=1;backgroundOutline=1;size=15;" parent="1" vertex="1">
          <mxGeometry x="1458" y="313.5" width="121" height="119" as="geometry" />
        </mxCell>
        <mxCell id="Jx5W27o9Ek6RV-WZzhhY-86" value="" style="rounded=0;whiteSpace=wrap;html=1;sketch=0;fillColor=none;dashed=1;strokeWidth=2;" parent="1" vertex="1">
          <mxGeometry x="280" y="101.5" width="1133" height="543" as="geometry" />
        </mxCell>
        <mxCell id="Jx5W27o9Ek6RV-WZzhhY-87" value="" style="image;html=1;image=img/lib/clip_art/networking/Email_128x128.png;sketch=0;fontSize=15;fillColor=none;" parent="1" vertex="1">
          <mxGeometry x="1298" y="186" width="52" height="43" as="geometry" />
        </mxCell>
        <mxCell id="Jx5W27o9Ek6RV-WZzhhY-88" value="" style="endArrow=classic;html=1;rounded=0;fontSize=15;endSize=6;strokeWidth=3;strokeColor=#C73500;fillColor=#fa6800;edgeStyle=entityRelationEdgeStyle;flowAnimation=1;entryX=0;entryY=0.5;entryDx=0;entryDy=0;" parent="1" source="Jx5W27o9Ek6RV-WZzhhY-122" target="Jx5W27o9Ek6RV-WZzhhY-138" edge="1">
          <mxGeometry width="50" height="50" relative="1" as="geometry">
            <mxPoint x="277" y="360" as="sourcePoint" />
            <mxPoint x="475.0000000000002" y="171.5" as="targetPoint" />
          </mxGeometry>
        </mxCell>
        <mxCell id="Jx5W27o9Ek6RV-WZzhhY-89" value="/tenants" style="edgeLabel;html=1;align=center;verticalAlign=middle;resizable=0;points=[];fontSize=15;" parent="Jx5W27o9Ek6RV-WZzhhY-88" vertex="1" connectable="0">
          <mxGeometry x="-0.5046" y="1" relative="1" as="geometry">
            <mxPoint x="62" y="-38" as="offset" />
          </mxGeometry>
        </mxCell>
        <mxCell id="Jx5W27o9Ek6RV-WZzhhY-90" value="" style="endArrow=classic;html=1;rounded=0;fontSize=15;endSize=6;strokeWidth=3;strokeColor=#C73500;fillColor=#fa6800;edgeStyle=entityRelationEdgeStyle;entryX=0;entryY=0.75;entryDx=0;entryDy=0;flowAnimation=1;" parent="1" source="Jx5W27o9Ek6RV-WZzhhY-122" target="Jx5W27o9Ek6RV-WZzhhY-145" edge="1">
          <mxGeometry width="50" height="50" relative="1" as="geometry">
            <mxPoint x="270.99999999999955" y="363" as="sourcePoint" />
            <mxPoint x="496" y="538.5" as="targetPoint" />
          </mxGeometry>
        </mxCell>
        <mxCell id="Jx5W27o9Ek6RV-WZzhhY-91" value="/rentals" style="edgeLabel;html=1;align=center;verticalAlign=middle;resizable=0;points=[];fontSize=15;" parent="Jx5W27o9Ek6RV-WZzhhY-90" vertex="1" connectable="0">
          <mxGeometry x="0.2804" y="-3" relative="1" as="geometry">
            <mxPoint x="-88" y="-53" as="offset" />
          </mxGeometry>
        </mxCell>
        <mxCell id="Jx5W27o9Ek6RV-WZzhhY-92" style="edgeStyle=orthogonalEdgeStyle;rounded=0;orthogonalLoop=1;jettySize=auto;html=1;strokeWidth=3;fillColor=#fa6800;strokeColor=#C73500;flowAnimation=1;entryX=0;entryY=0.5;entryDx=0;entryDy=0;" parent="1" source="Jx5W27o9Ek6RV-WZzhhY-122" target="Jx5W27o9Ek6RV-WZzhhY-140" edge="1">
          <mxGeometry relative="1" as="geometry">
            <mxPoint x="413" y="361" as="targetPoint" />
          </mxGeometry>
        </mxCell>
        <mxCell id="Jx5W27o9Ek6RV-WZzhhY-93" value="/houses" style="edgeLabel;html=1;align=center;verticalAlign=middle;resizable=0;points=[];fontSize=15;" parent="Jx5W27o9Ek6RV-WZzhhY-92" vertex="1" connectable="0">
          <mxGeometry x="0.2865" y="1" relative="1" as="geometry">
            <mxPoint x="-50" y="-1" as="offset" />
          </mxGeometry>
        </mxCell>
        <mxCell id="Jx5W27o9Ek6RV-WZzhhY-94" value="" style="shape=image;verticalLabelPosition=bottom;labelBackgroundColor=default;verticalAlign=top;aspect=fixed;imageAspect=0;image=https://www.opc-router.de/wp-content/uploads/2021/03/mongodb_thumbnail.png;" parent="1" vertex="1">
          <mxGeometry x="1296.12" y="453.5" width="55.76" height="75" as="geometry" />
        </mxCell>
        <mxCell id="Jx5W27o9Ek6RV-WZzhhY-95" value="" style="shape=image;verticalLabelPosition=bottom;labelBackgroundColor=default;verticalAlign=top;aspect=fixed;imageAspect=0;image=https://avatars.githubusercontent.com/u/11860887?s=280&amp;v=4;" parent="1" vertex="1">
          <mxGeometry x="1487" y="355.5" width="63" height="63" as="geometry" />
        </mxCell>
        <mxCell id="Jx5W27o9Ek6RV-WZzhhY-96" value="" style="shape=image;verticalLabelPosition=bottom;labelBackgroundColor=default;verticalAlign=top;aspect=fixed;imageAspect=0;image=https://static-00.iconduck.com/assets.00/kafka-icon-2048x935-cvu4503l.png;imageBorder=none;perimeterSpacing=0;" parent="1" vertex="1">
          <mxGeometry x="1064" y="284" width="77.75" height="35.5" as="geometry" />
        </mxCell>
        <mxCell id="Jx5W27o9Ek6RV-WZzhhY-97" value="Message Broker" style="shape=cylinder3;whiteSpace=wrap;html=1;boundedLbl=1;backgroundOutline=1;size=15;rotation=90;horizontal=0;verticalAlign=top;" parent="1" vertex="1">
          <mxGeometry x="1091" y="284.5" width="59" height="139" as="geometry" />
        </mxCell>
        <mxCell id="Jx5W27o9Ek6RV-WZzhhY-99" style="rounded=0;orthogonalLoop=1;jettySize=auto;html=1;exitX=0.331;exitY=-0.003;exitDx=0;exitDy=0;exitPerimeter=0;strokeWidth=3;fillColor=#1ba1e2;strokeColor=#006EAF;flowAnimation=1;" parent="1" source="Jx5W27o9Ek6RV-WZzhhY-144" edge="1">
          <mxGeometry relative="1" as="geometry">
            <mxPoint x="587" y="386" as="targetPoint" />
          </mxGeometry>
        </mxCell>
        <mxCell id="Jx5W27o9Ek6RV-WZzhhY-100" style="edgeStyle=entityRelationEdgeStyle;rounded=0;orthogonalLoop=1;jettySize=auto;html=1;entryX=0;entryY=0.5;entryDx=0;entryDy=0;exitX=1;exitY=0.25;exitDx=0;exitDy=0;fillColor=#1ba1e2;strokeColor=#006EAF;strokeWidth=3;flowAnimation=1;" parent="1" source="Jx5W27o9Ek6RV-WZzhhY-144" target="Jx5W27o9Ek6RV-WZzhhY-142" edge="1">
          <mxGeometry relative="1" as="geometry" />
        </mxCell>
        <mxCell id="Jx5W27o9Ek6RV-WZzhhY-101" style="rounded=0;orthogonalLoop=1;jettySize=auto;html=1;entryX=0.5;entryY=1;entryDx=0;entryDy=0;entryPerimeter=0;fillColor=#60a917;strokeColor=#2D7600;strokeWidth=3;flowAnimation=1;" parent="1" source="Jx5W27o9Ek6RV-WZzhhY-142" target="Jx5W27o9Ek6RV-WZzhhY-97" edge="1">
          <mxGeometry relative="1" as="geometry" />
        </mxCell>
        <mxCell id="Jx5W27o9Ek6RV-WZzhhY-102" style="rounded=0;orthogonalLoop=1;jettySize=auto;html=1;exitX=0.75;exitY=0;exitDx=0;exitDy=0;entryX=0.75;entryY=1;entryDx=0;entryDy=0;strokeWidth=3;fillColor=#1ba1e2;strokeColor=#006EAF;flowAnimation=1;" parent="1" source="Jx5W27o9Ek6RV-WZzhhY-144" target="Jx5W27o9Ek6RV-WZzhhY-138" edge="1">
          <mxGeometry relative="1" as="geometry" />
        </mxCell>
        <mxCell id="Jx5W27o9Ek6RV-WZzhhY-103" style="edgeStyle=orthogonalEdgeStyle;rounded=0;orthogonalLoop=1;jettySize=auto;html=1;entryX=0.5;entryY=0;entryDx=0;entryDy=0;entryPerimeter=0;fillColor=#60a917;strokeColor=#2D7600;strokeWidth=3;flowAnimation=1;" parent="1" source="Jx5W27o9Ek6RV-WZzhhY-146" target="Jx5W27o9Ek6RV-WZzhhY-97" edge="1">
          <mxGeometry relative="1" as="geometry" />
        </mxCell>
        <mxCell id="Jx5W27o9Ek6RV-WZzhhY-104" value="" style="shape=image;verticalLabelPosition=bottom;labelBackgroundColor=default;verticalAlign=top;aspect=fixed;imageAspect=0;image=https://cdn-icons-png.flaticon.com/512/25/25231.png;" parent="1" vertex="1">
          <mxGeometry x="1096.76" y="775.25" width="29" height="29" as="geometry" />
        </mxCell>
        <mxCell id="Jx5W27o9Ek6RV-WZzhhY-105" value="" style="sketch=0;aspect=fixed;pointerEvents=1;shadow=0;dashed=0;html=1;strokeColor=none;labelPosition=center;verticalLabelPosition=bottom;verticalAlign=top;align=center;fillColor=#00188D;shape=mxgraph.azure.code_file" parent="1" vertex="1">
          <mxGeometry x="1139.98" y="773" width="31.26" height="33.25" as="geometry" />
        </mxCell>
        <mxCell id="Jx5W27o9Ek6RV-WZzhhY-106" value="" style="group" parent="1" vertex="1" connectable="0">
          <mxGeometry x="795.94" y="223" width="50.120000000000005" height="57.64852490606316" as="geometry" />
        </mxCell>
        <mxCell id="Jx5W27o9Ek6RV-WZzhhY-107" value="" style="shape=image;verticalLabelPosition=bottom;labelBackgroundColor=default;verticalAlign=top;aspect=fixed;imageAspect=0;image=https://upload.wikimedia.org/wikipedia/commons/thumb/b/ba/Database-postgres.svg/1448px-Database-postgres.svg.png;container=0;" parent="Jx5W27o9Ek6RV-WZzhhY-106" vertex="1">
          <mxGeometry x="13.99735211811253" width="36.12264788188748" height="51.04120428447361" as="geometry" />
        </mxCell>
        <mxCell id="Jx5W27o9Ek6RV-WZzhhY-108" value="" style="sketch=0;aspect=fixed;html=1;points=[];align=center;image;fontSize=12;image=img/lib/mscae/Docker.svg;fillColor=none;container=0;" parent="Jx5W27o9Ek6RV-WZzhhY-106" vertex="1">
          <mxGeometry y="36.67969348659003" width="25.571745633503813" height="20.968831419473126" as="geometry" />
        </mxCell>
        <mxCell id="Jx5W27o9Ek6RV-WZzhhY-109" value="" style="group" parent="1" vertex="1" connectable="0">
          <mxGeometry x="527.94" y="236" width="50.120000000000005" height="57.64852490606316" as="geometry" />
        </mxCell>
        <mxCell id="Jx5W27o9Ek6RV-WZzhhY-110" value="" style="shape=image;verticalLabelPosition=bottom;labelBackgroundColor=default;verticalAlign=top;aspect=fixed;imageAspect=0;image=https://upload.wikimedia.org/wikipedia/commons/thumb/b/ba/Database-postgres.svg/1448px-Database-postgres.svg.png;container=0;" parent="Jx5W27o9Ek6RV-WZzhhY-109" vertex="1">
          <mxGeometry x="15.99735211811253" width="36.12264788188748" height="51.04120428447361" as="geometry" />
        </mxCell>
        <mxCell id="Jx5W27o9Ek6RV-WZzhhY-111" value="" style="sketch=0;aspect=fixed;html=1;points=[];align=center;image;fontSize=12;image=img/lib/mscae/Docker.svg;fillColor=none;container=0;" parent="Jx5W27o9Ek6RV-WZzhhY-109" vertex="1">
          <mxGeometry y="36.67969348659003" width="25.571745633503813" height="20.968831419473126" as="geometry" />
        </mxCell>
        <mxCell id="Jx5W27o9Ek6RV-WZzhhY-113" style="edgeStyle=orthogonalEdgeStyle;rounded=0;orthogonalLoop=1;jettySize=auto;html=1;shape=link;flowAnimation=1;" parent="1" source="Jx5W27o9Ek6RV-WZzhhY-142" target="Jx5W27o9Ek6RV-WZzhhY-107" edge="1">
          <mxGeometry relative="1" as="geometry" />
        </mxCell>
        <mxCell id="Jx5W27o9Ek6RV-WZzhhY-114" value="" style="group" parent="1" vertex="1" connectable="0">
          <mxGeometry x="680" y="556" width="50.120000000000005" height="57.64852490606316" as="geometry" />
        </mxCell>
        <mxCell id="Jx5W27o9Ek6RV-WZzhhY-115" value="" style="shape=image;verticalLabelPosition=bottom;labelBackgroundColor=default;verticalAlign=top;aspect=fixed;imageAspect=0;image=https://upload.wikimedia.org/wikipedia/commons/thumb/b/ba/Database-postgres.svg/1448px-Database-postgres.svg.png;container=0;" parent="Jx5W27o9Ek6RV-WZzhhY-114" vertex="1">
          <mxGeometry x="13.99735211811253" width="36.12264788188748" height="51.04120428447361" as="geometry" />
        </mxCell>
        <mxCell id="Jx5W27o9Ek6RV-WZzhhY-116" value="" style="sketch=0;aspect=fixed;html=1;points=[];align=center;image;fontSize=12;image=img/lib/mscae/Docker.svg;fillColor=none;container=0;" parent="Jx5W27o9Ek6RV-WZzhhY-114" vertex="1">
          <mxGeometry y="36.67969348659003" width="25.571745633503813" height="20.968831419473126" as="geometry" />
        </mxCell>
        <mxCell id="Jx5W27o9Ek6RV-WZzhhY-117" style="edgeStyle=orthogonalEdgeStyle;rounded=0;orthogonalLoop=1;jettySize=auto;html=1;entryX=1;entryY=0.5;entryDx=0;entryDy=0;shape=link;flowAnimation=1;exitX=0.5;exitY=1;exitDx=0;exitDy=0;" parent="Jx5W27o9Ek6RV-WZzhhY-114" source="Jx5W27o9Ek6RV-WZzhhY-144" edge="1">
          <mxGeometry relative="1" as="geometry">
            <mxPoint x="-206.10000000000002" y="45.07000000000005" as="sourcePoint" />
            <mxPoint x="-6.019999999999641" y="38.09060214223689" as="targetPoint" />
            <Array as="points">
              <mxPoint x="-73" y="38" />
            </Array>
          </mxGeometry>
        </mxCell>
        <mxCell id="Jx5W27o9Ek6RV-WZzhhY-118" style="edgeStyle=orthogonalEdgeStyle;rounded=0;orthogonalLoop=1;jettySize=auto;html=1;entryX=0.25;entryY=1;entryDx=0;entryDy=0;shape=link;flowAnimation=1;" parent="1" source="Jx5W27o9Ek6RV-WZzhhY-140" target="Jx5W27o9Ek6RV-WZzhhY-110" edge="1">
          <mxGeometry relative="1" as="geometry" />
        </mxCell>
        <mxCell id="Jx5W27o9Ek6RV-WZzhhY-119" style="edgeStyle=orthogonalEdgeStyle;rounded=0;orthogonalLoop=1;jettySize=auto;html=1;entryX=0.5;entryY=1;entryDx=0;entryDy=0;shape=link;flowAnimation=1;" parent="1" source="Jx5W27o9Ek6RV-WZzhhY-146" target="Jx5W27o9Ek6RV-WZzhhY-87" edge="1">
          <mxGeometry relative="1" as="geometry" />
        </mxCell>
        <mxCell id="Jx5W27o9Ek6RV-WZzhhY-120" style="edgeStyle=orthogonalEdgeStyle;rounded=0;orthogonalLoop=1;jettySize=auto;html=1;entryX=0;entryY=0.5;entryDx=0;entryDy=0;entryPerimeter=0;strokeWidth=3;fillColor=#a20025;strokeColor=#6F0000;flowAnimation=1;" parent="1" source="Jx5W27o9Ek6RV-WZzhhY-86" target="Jx5W27o9Ek6RV-WZzhhY-85" edge="1">
          <mxGeometry relative="1" as="geometry" />
        </mxCell>
        <mxCell id="Jx5W27o9Ek6RV-WZzhhY-121" value="Distributed Tracing" style="text;html=1;align=center;verticalAlign=middle;resizable=0;points=[];autosize=1;strokeColor=none;fillColor=none;fontStyle=1;fontSize=15;" parent="1" vertex="1">
          <mxGeometry x="1441" y="453" width="155" height="30" as="geometry" />
        </mxCell>
        <mxCell id="Jx5W27o9Ek6RV-WZzhhY-122" value="&lt;b&gt;API GW&lt;/b&gt;" style="sketch=0;outlineConnect=0;dashed=0;verticalLabelPosition=bottom;verticalAlign=top;align=center;html=1;fontSize=12;fontStyle=0;aspect=fixed;pointerEvents=1;shape=mxgraph.aws4.gateway_load_balancer;labelBackgroundColor=none;labelBorderColor=none;fillColor=#1ba1e2;strokeColor=default;" parent="1" vertex="1">
          <mxGeometry x="100" y="324.5" width="73" height="73" as="geometry" />
        </mxCell>
        <mxCell id="Jx5W27o9Ek6RV-WZzhhY-123" style="edgeStyle=orthogonalEdgeStyle;rounded=0;orthogonalLoop=1;jettySize=auto;html=1;entryX=0.5;entryY=0;entryDx=0;entryDy=0;shape=link;flowAnimation=1;" parent="1" source="Jx5W27o9Ek6RV-WZzhhY-146" target="Jx5W27o9Ek6RV-WZzhhY-94" edge="1">
          <mxGeometry relative="1" as="geometry" />
        </mxCell>
        <mxCell id="Jx5W27o9Ek6RV-WZzhhY-125" value="Async&lt;br&gt;Send Payment confirmation" style="text;html=1;align=center;verticalAlign=middle;resizable=0;points=[];autosize=1;strokeColor=none;fillColor=none;" parent="1" vertex="1">
          <mxGeometry x="886" y="310" width="165" height="41" as="geometry" />
        </mxCell>
        <mxCell id="Jx5W27o9Ek6RV-WZzhhY-126" value="Public network" style="text;html=1;align=center;verticalAlign=middle;resizable=0;points=[];autosize=1;strokeColor=none;fillColor=none;fontStyle=1" parent="1" vertex="1">
          <mxGeometry x="70" y="130" width="103" height="26" as="geometry" />
        </mxCell>
        <mxCell id="Jx5W27o9Ek6RV-WZzhhY-127" value="Private network" style="text;html=1;align=center;verticalAlign=middle;resizable=0;points=[];autosize=1;strokeColor=none;fillColor=none;fontStyle=1" parent="1" vertex="1">
          <mxGeometry x="185" y="67" width="107" height="26" as="geometry" />
        </mxCell>
        <mxCell id="Jx5W27o9Ek6RV-WZzhhY-128" style="edgeStyle=orthogonalEdgeStyle;rounded=0;orthogonalLoop=1;jettySize=auto;html=1;entryX=0.75;entryY=1;entryDx=0;entryDy=0;flowAnimation=1;startArrow=none;startFill=0;endArrow=block;endFill=1;" parent="1" source="Jx5W27o9Ek6RV-WZzhhY-150" target="Jx5W27o9Ek6RV-WZzhhY-86" edge="1">
          <mxGeometry relative="1" as="geometry" />
        </mxCell>
        <mxCell id="Jx5W27o9Ek6RV-WZzhhY-129" style="edgeStyle=orthogonalEdgeStyle;rounded=0;orthogonalLoop=1;jettySize=auto;html=1;entryX=0.25;entryY=1;entryDx=0;entryDy=0;flowAnimation=1;startArrow=block;startFill=1;endArrow=none;endFill=0;" parent="1" source="Jx5W27o9Ek6RV-WZzhhY-148" target="Jx5W27o9Ek6RV-WZzhhY-86" edge="1">
          <mxGeometry relative="1" as="geometry" />
        </mxCell>
        <mxCell id="Jx5W27o9Ek6RV-WZzhhY-130" value="" style="shape=message;html=1;html=1;outlineConnect=0;labelPosition=center;verticalLabelPosition=bottom;align=center;verticalAlign=top;container=0;" parent="1" vertex="1">
          <mxGeometry x="1073" y="354" width="23" height="13.5" as="geometry" />
        </mxCell>
        <mxCell id="Jx5W27o9Ek6RV-WZzhhY-131" value="" style="shape=message;html=1;html=1;outlineConnect=0;labelPosition=center;verticalLabelPosition=bottom;align=center;verticalAlign=top;container=0;" parent="1" vertex="1">
          <mxGeometry x="1099" y="354" width="23" height="13.5" as="geometry" />
        </mxCell>
        <mxCell id="Jx5W27o9Ek6RV-WZzhhY-132" value="" style="shape=message;html=1;html=1;outlineConnect=0;labelPosition=center;verticalLabelPosition=bottom;align=center;verticalAlign=top;container=0;" parent="1" vertex="1">
          <mxGeometry x="1126" y="354" width="23" height="13.5" as="geometry" />
        </mxCell>
        <mxCell id="Jx5W27o9Ek6RV-WZzhhY-133" style="edgeStyle=orthogonalEdgeStyle;rounded=0;orthogonalLoop=1;jettySize=auto;html=1;flowAnimation=1;" parent="1" source="Jx5W27o9Ek6RV-WZzhhY-150" target="Jx5W27o9Ek6RV-WZzhhY-148" edge="1">
          <mxGeometry relative="1" as="geometry" />
        </mxCell>
        <mxCell id="Jx5W27o9Ek6RV-WZzhhY-134" style="edgeStyle=orthogonalEdgeStyle;rounded=0;orthogonalLoop=1;jettySize=auto;html=1;flowAnimation=1;" parent="1" source="Jx5W27o9Ek6RV-WZzhhY-152" target="Jx5W27o9Ek6RV-WZzhhY-122" edge="1">
          <mxGeometry relative="1" as="geometry">
            <mxPoint x="51.180000000000064" y="361.0999999999999" as="sourcePoint" />
            <Array as="points" />
          </mxGeometry>
        </mxCell>
        <mxCell id="Jx5W27o9Ek6RV-WZzhhY-138" value="User" style="rounded=1;whiteSpace=wrap;html=1;" parent="1" vertex="1">
          <mxGeometry x="549" y="150" width="120" height="39" as="geometry" />
        </mxCell>
        <mxCell id="Jx5W27o9Ek6RV-WZzhhY-139" value="" style="shape=image;verticalLabelPosition=bottom;labelBackgroundColor=default;verticalAlign=top;aspect=fixed;imageAspect=0;image=https://images.ctfassets.net/gt6dp23g0g38/5DqlQtFKecFlkqQ8YGDT2p/aa945b648f44dd872e9a1b89f7d203ef/springboot.png;" parent="1" vertex="1">
          <mxGeometry x="553" y="152.6" width="19.538999999999998" height="17.55" as="geometry" />
        </mxCell>
        <mxCell id="Jx5W27o9Ek6RV-WZzhhY-140" value="House" style="rounded=1;whiteSpace=wrap;html=1;" parent="1" vertex="1">
          <mxGeometry x="493" y="340.5" width="120" height="41" as="geometry" />
        </mxCell>
        <mxCell id="Jx5W27o9Ek6RV-WZzhhY-141" value="" style="shape=image;verticalLabelPosition=bottom;labelBackgroundColor=default;verticalAlign=top;aspect=fixed;imageAspect=0;image=https://images.ctfassets.net/gt6dp23g0g38/5DqlQtFKecFlkqQ8YGDT2p/aa945b648f44dd872e9a1b89f7d203ef/springboot.png;" parent="1" vertex="1">
          <mxGeometry x="497" y="343.23333333333335" width="20.541" height="18.45" as="geometry" />
        </mxCell>
        <mxCell id="Jx5W27o9Ek6RV-WZzhhY-142" value="Payment" style="rounded=1;whiteSpace=wrap;html=1;" parent="1" vertex="1">
          <mxGeometry x="768" y="334" width="120" height="40" as="geometry" />
        </mxCell>
        <mxCell id="Jx5W27o9Ek6RV-WZzhhY-143" value="" style="shape=image;verticalLabelPosition=bottom;labelBackgroundColor=default;verticalAlign=top;aspect=fixed;imageAspect=0;image=https://images.ctfassets.net/gt6dp23g0g38/5DqlQtFKecFlkqQ8YGDT2p/aa945b648f44dd872e9a1b89f7d203ef/springboot.png;" parent="1" vertex="1">
          <mxGeometry x="772" y="336.6666666666667" width="20.04" height="18.000000000000004" as="geometry" />
        </mxCell>
        <mxCell id="Jx5W27o9Ek6RV-WZzhhY-144" value="Rental" style="rounded=1;whiteSpace=wrap;html=1;" parent="1" vertex="1">
          <mxGeometry x="547" y="518" width="120" height="41.5" as="geometry" />
        </mxCell>
        <mxCell id="Jx5W27o9Ek6RV-WZzhhY-145" value="" style="shape=image;verticalLabelPosition=bottom;labelBackgroundColor=default;verticalAlign=top;aspect=fixed;imageAspect=0;image=https://images.ctfassets.net/gt6dp23g0g38/5DqlQtFKecFlkqQ8YGDT2p/aa945b648f44dd872e9a1b89f7d203ef/springboot.png;" parent="1" vertex="1">
          <mxGeometry x="551" y="520.7666666666667" width="20.7915" height="18.675" as="geometry" />
        </mxCell>
        <mxCell id="Jx5W27o9Ek6RV-WZzhhY-146" value="Notification" style="rounded=1;whiteSpace=wrap;html=1;" parent="1" vertex="1">
          <mxGeometry x="1264" y="330.5" width="120" height="47" as="geometry" />
        </mxCell>
        <mxCell id="Jx5W27o9Ek6RV-WZzhhY-147" value="" style="shape=image;verticalLabelPosition=bottom;labelBackgroundColor=default;verticalAlign=top;aspect=fixed;imageAspect=0;image=https://images.ctfassets.net/gt6dp23g0g38/5DqlQtFKecFlkqQ8YGDT2p/aa945b648f44dd872e9a1b89f7d203ef/springboot.png;" parent="1" vertex="1">
          <mxGeometry x="1268" y="333.6333333333333" width="23.546999999999997" height="21.15" as="geometry" />
        </mxCell>
        <mxCell id="Jx5W27o9Ek6RV-WZzhhY-148" value="Eureka server" style="rounded=1;whiteSpace=wrap;html=1;" parent="1" vertex="1">
          <mxGeometry x="502.77" y="713.13" width="120" height="47" as="geometry" />
        </mxCell>
        <mxCell id="Jx5W27o9Ek6RV-WZzhhY-149" value="" style="shape=image;verticalLabelPosition=bottom;labelBackgroundColor=default;verticalAlign=top;aspect=fixed;imageAspect=0;image=https://images.ctfassets.net/gt6dp23g0g38/5DqlQtFKecFlkqQ8YGDT2p/aa945b648f44dd872e9a1b89f7d203ef/springboot.png;" parent="1" vertex="1">
          <mxGeometry x="501" y="716.2633333333333" width="23.546999999999997" height="21.15" as="geometry" />
        </mxCell>
        <mxCell id="Jx5W27o9Ek6RV-WZzhhY-150" value="Config server" style="rounded=1;whiteSpace=wrap;html=1;" parent="1" vertex="1">
          <mxGeometry x="1068" y="713.13" width="120" height="47" as="geometry" />
        </mxCell>
        <mxCell id="Jx5W27o9Ek6RV-WZzhhY-151" value="" style="shape=image;verticalLabelPosition=bottom;labelBackgroundColor=default;verticalAlign=top;aspect=fixed;imageAspect=0;image=https://images.ctfassets.net/gt6dp23g0g38/5DqlQtFKecFlkqQ8YGDT2p/aa945b648f44dd872e9a1b89f7d203ef/springboot.png;" parent="1" vertex="1">
          <mxGeometry x="1068" y="716.2633333333333" width="23.546999999999997" height="21.15" as="geometry" />
        </mxCell>
        <mxCell id="Jx5W27o9Ek6RV-WZzhhY-152" value="" style="shape=image;verticalLabelPosition=bottom;verticalAlign=top;imageAspect=0;aspect=fixed;image=data:image/jpeg,/9j/4AAQSkZJRgABAQEAAAAAAAD/4QAuRXhpZgAATU0AKgAAAAgAAkAAAAMAAAABAAAAAEABAAEAAAABAAAAAAAAAAD/2wBDAAoHBwkHBgoJCAkLCwoMDxkQDw4ODx4WFxIZJCAmJSMgIyIoLTkwKCo2KyIjMkQyNjs9QEBAJjBGS0U+Sjk/QD3/2wBDAQsLCw8NDx0QEB09KSMpPT09PT09PT09PT09PT09PT09PT09PT09PT09PT09PT09PT09PT09PT09PT09PT09PT3/wAARCAHaAdoDASIAAhEBAxEB/8QAHwAAAQUBAQEBAQEAAAAAAAAAAAECAwQFBgcICQoL/8QAtRAAAgEDAwIEAwUFBAQAAAF9AQIDAAQRBRIhMUEGE1FhByJxFDKBkaEII0KxwRVS0fAkM2JyggkKFhcYGRolJicoKSo0NTY3ODk6Q0RFRkdISUpTVFVWV1hZWmNkZWZnaGlqc3R1dnd4eXqDhIWGh4iJipKTlJWWl5iZmqKjpKWmp6ipqrKztLW2t7i5usLDxMXGx8jJytLT1NXW19jZ2uHi4+Tl5ufo6erx8vP09fb3+Pn6/8QAHwEAAwEBAQEBAQEBAQAAAAAAAAECAwQFBgcICQoL/8QAtREAAgECBAQDBAcFBAQAAQJ3AAECAxEEBSExBhJBUQdhcRMiMoEIFEKRobHBCSMzUvAVYnLRChYkNOEl8RcYGRomJygpKjU2Nzg5OkNERUZHSElKU1RVVldYWVpjZGVmZ2hpanN0dXZ3eHl6goOEhYaHiImKkpOUlZaXmJmaoqOkpaanqKmqsrO0tba3uLm6wsPExcbHyMnK0tPU1dbX2Nna4uPk5ebn6Onq8vP09fb3+Pn6/9oADAMBAAIRAxEAPwDyqiiitzjCiiigAooooAKKKKACiiigAooooAKKKKACiiigAooooAKKKKACiiigAooooAKKKKACiiigAooooAKKKKACiiigAooooAKKKKACiiigAooooAKKKKACiiigAooooAKKKKACiiigAooooAKKKKACiiigAp1Np1ADaKKKACiiigAooooAKKKKACiiigAooooAKKKKACiiigAooooAKKKKACiiigAooooAKKKKACiiigAooooAKKKKACiiigAooooAKKKKACiiigAooooAKKKKACiiigAooooAKKKKACiiigAooooAKKKKACiiigAp1Np1ADaKKKACiiigAooooAKKKKACiiigAooooAKKKKACiiigAooooAKKKKACiiigAooooAKKKKACiiigAooooAKKKKACiiigAooooAKKKKACiiigAooooAKKKKACiiigAooooAKKKKACiiigAooooAKKKKACiiigAp1Np1ADaKKKACiiigAooooAKKKKACiiigAooooAKKKKACiiigAooooAKKKKACiiigAooooAKKKKACiiigAooooAKKKKACiiigAooooAKKKKACiiigAooooAKKKKACiiigAooooAKKKKACiiigAooooAKKKKACiiigAp1Np1ADaKKKACiiigAooooAKKKKACiiigAooooAKKKKACiiigAooooAKKKKACiiigAooooAKKKKACiiigAooooAKKKKACiiigAooooAKKKKACiiigAooooAKKKKACiiigAooooAKKKKACiiigAooooAKKKKACiiigAp1Np1ADaKKKACiiigAooooAKKKKACiiigAooooAKKKKACiiigAooooAKKKKACiiigAooooAKKKKACiiigAooooAKKKKACiiigAooooAKKKKACiiigAooooAKKKKACiiigAooooAKKKKACiiigAooooAKKKKACiiigAp1Np1ADaKKKACiiigAooooAKKKKACiiigAooooAKKKKACiiigAooooAKKKKACiiigAooooAKKKKACiiigAooooAKKKKACiiigAooooAKKKKACiiigAooooAKKKKACiiigAooooAKKKKACiiigAooooAKKKKACiiigAp1Np1ADaKKKACiiigAooooAKKKKACiiigAooooAKKKKACiiigAooooAKKKKACiiigAooooAKKKKACiiigAooooAKKKKACiiigAooooAKKKKACiiigAooooAKKKKACiiigAooooAKKKKACiiigAooooAKKKKACiiigAp1Np1ADaKKKACiiigAooooAKKKKACiiigAooooAKKKKACiiigAooooAKKKKACiiigAooooAKKKKACiiigAooooAKKKKACiiigAooooAKKKKACiiigAooooAKKKKACiiigAooooAKKKKACiiigAooooAKKKKACiiigAp1Np1ADaKKKACiiigAooooAKKKKACiiigAooooAKKKKACiiigAooooAKKKKACiiigCWC3lurhILaJ5ZZDhUQZJro7fwNduo+2XltbMR9wZkYfXbxn8TW/oekpoenqhQC8nQNcP3XPPlj0A4z6nPYCtDb8rSEosa8F3YKo/E8V20sKnHmqOyPKxOYyU/Z0Vd99zkpvAkwH+j6hbO3ZXV0z+OCKxdR0PUNLG69tWSMnAlUhkP/AhxXpEaGZC0DJMo6mF1fH5GiORo87WwGGCOx+o7j2NW8JCS9xmMc0qwdq0P0PKMelHWu71TwpZagDJZ7LG6PYD9y/4fwH3GR7DrXGX1jc6bdNbXkLRTLyQe49Qe49xkVxVKcqbtJHrUMRTrq8GVqKKKzNQooopgKRihQSwGCSTgADrWvo3hu61j99kW9mDhrhxkH2UfxH6cDuRXbabp1no6YsIdsmPmuH+aVvx/hHsMfU1tSoTqbbdzmxGMp0F7zu+xx9p4O1S5AeaNLOMjINw20n/gIy36VoDwIMc6tFu9oGI/n/SuqWNpXxGrOx5IAzTC8SyCNrm0WUnAQ3CA/lmuv6rSiveep5jzLEVHenDT0OI1HwjqFjC80Xl3cCDLtASSo9Sp5x7jI96wulesfvIJP4o5FOR2Irj/ABjo8cBTU7VFSOZtkyKMBZOoIHYMATjsQe3FYV8N7Nc0XdHZgsf7aXJNWZy1FFFcp6AUUUUAFFFFABRRRQAUUUUAFFFFABRRRQAUUUUAFFFFABRRRQAU6m06gBtFFFABRRRQAUUUUAFFFFABRRRQAUUUUAFFFFABRRRQAUUUUAFFFFAC960vD1ot74isIHGYzMGcHuF+Y/oDWbW34P8A+Rntv92TH/ftqcVdpCm2ot9kd07tIzO3LMcn3riPGV+9zrUlpuPkWf7pFB43D7zfUtnn0AFdwmC656ZGa831zP8Ab+pZ6/apc/8AfRrvxraSXQ8XKEnKcnuU0keGRZIXeORTkMp2kfiK6XTPGs8ZWPVUN1H085cCZfx6P+PPuK5jiiuCMpRd07M9mpTjUXLJXR6lBNBeWwubOZJ4Ccbl42n0YdVPsfwyOabe2ltqdr9lvozJGOUYcPEfVT/Q8HuO9edabqdzpN0LizlKPjDKRlXHow7j/PBrvdJ1e21y3L248q5jG6W2JyQP7yn+Jf1Hf1r0KWIjVXJUWv5ni4jBVMNL2tB6HFa3oVxolwokIlt5D+6nUfK/sfRh/dP6isz27V6pJHFPbvb3MSzQScSRt0PuPQjsRyK4LX/D76JMJEZpbGU4ilIwQf7jejD8iOR7ctfDum7rVHoYPGxxCs9JL8TIPHSur0DworIl7q6MImG6K2JwZP8Aaf8AuqfTqfYcmz4c8MC0Ed/qUQacgNBbuOEHZ3Hr3Cn6mukAknm/ieRjkknknvWuHw3N789jDG4/kfsqWshGctgYUBRtVVGAo9AB0A9BWfq2t2eiZS4Jmu8f8e0Z5X/fb+H6cn2HWsrXvFotd1ppEgabo92vO32j/wDivy9a40kkkkkknJJOc1VbFW92nt3M8Ll1/wB5X1b6GrqfiTUdUUxyTeTbk8QQ/In492+pzWTjtgY+lLkUlcLbbuz14pRVoqyO88I6g99orwysWksnVFYnJ8tgSB9AVI+hAq/rEIudA1GI84gMq+xQ7v5Aj8awvAmfL1T02xf+hN/9eukuMf2feZ6fZps/9+2r0aXvYd36HhYhezx0WurR5bRQO1Fece6FFFFABRRRQAUUUUAFFFFABRRRQAUUUUAFFFFABRRRQAUUUUAFOptOoAbRRRQAUUUUAFFFFABRRRQAUUUUAFFFFABRRRQAUUUUAFFFFABRRRQAtanheYQeJtOYnCmZUP8AwL5f/Zqy6dHK0MqSp9+Ng6/Uc0XtqDV1Y9SIIyD1FcF4ri8rxRf4HyySeaPcOA39a9BldZZTKn+rlAkXHow3D9DXH+ObbbeWV4BxLD5TH/aQ/wDxLLXo4xc1NSR4eVvkrTpvc5aiiivNPcCpbe4mtZ0nt5GiljO5HQ4KmoqKYHouh65FrsDKwWK/jXdJCowJAP40/qvbqOOmmjbVYFUdTjKuoYEjkHB7g857VyPg/RXe4j1e43rFA+bdQcGVx3/3V7+p49a6wnLZbua9XDOU6fvq6PncwhTo1r0nZ9V2HAPNL3Z2OSSevckk/nk1yPiPxOsyyafpkn+jn5Z5x1m/2V9E/wDQu/FdVJFHc209rcbvJnjMblDhgOuR7ggHHQ9DxXnWsaXNo9+1pPhuN0cij5ZFPRh/h2IIrHGzmrJbM6Mqp0pXm9ZFCiiiuA9oKKKKAO18ERbNJvpv+es6IPfapJ/9DFa+qyCHQdSkPa2ZR9Wwv/s1ReH7b7J4csYyMNKrTt/wM8f+Ohaq+LrjyPDZj/iuZ1QfRRuP67a9Fe5hteqPCl+9zBJdH+RwVFFFece6FFFFABRRRQAUUUUAFFFFABRRRQAUUUUAFFFFABRRRQAUUUUAFOptOoAbRRRQAUUUUAFFFFABRRRQAUUUUAFFFFABRRRQAUUUUAFFFFABRRRQAUUUUAei+Hbr7b4btGJy8Gbdvbbyv/jrAfhTPFFn9s8OTEDMlq4nX/d+636EH8KzPApuM3sPkSm2kjEol2HYrp79OVJH1ArqV2Fisy7o3BSRfVSMH9Ca9Kl+9w7j1Wh4OI/2bGKp0ep5RSV2UXga0Vv3+pzSAHjyoQufxJ/pV2LwnokX3obqY+sk+B/46BXIsNVfQ9OWYYeP2r+hwNa3h7RG1m9w5KWkIDTyD07KP9puntyegrso9E0iL7ulWx93Lv8AzarkaRQQiK3hhhiB3bIowgJ9eOp4Aya2hgp8y5tjmq5rT5X7NO/QccYVUQRxooREXoijoB7D/wCv1rD8Q+JW0V1tLBkN/wANM5AYRD+5g9z39AcdScbgbBBU4IPX0qQ3cxJYytuJyT6111acpR5YOyPKw1eEKjqVVdlLT9Qg1axS8tRtB+WWHPMT+n0PUHuPcGm6ppkes2BtZmVJFJa3lP8Ayzf0P+y3APpwavPcTMm1pGKt1UmoqapuVPknqS8QoVva0VZdjy64gltbmS3uEMcsbFXRuqkdajr1h38zHmJFJgYzJErfzFV2srOX/WadYv8AW2QfyFcTwU+jR68c3pPdNHmHFTWFo+oX9vaR/fnkWMH0ycZ/r+FegyaDo8v3tLgX3jd0P6NRY6Jpmm3ou7SGdZlVlQNNuVcjGemcgE9+9R9UqXNf7UoWdm7mhJs3nyRiNAEjHooGB+gFcd44ut2oWtmDxbw7mx/ff5j/AOO7a7GJVaVRIdse4BiB0FcZrXhvWrvUbq88hLnzpC/+jyB8A9Bt+9wMDp2roxl1BRS0OHLOV1JVJtXOaoqSeCW2kMdxE8TjqsilT+RqOvOPdCiiigAooooAKKKKACiiigAooooAKKKKACiiigAooooAKKKKACnU2nUANooooAKKKKACiiigAooooAKKKKACiiigAooooAKKKKACiiigBe1WbHTbzVJjFZW8k7ry20cL9SeAPriul0fwaFRbjWty5GVtFO1j/vn+Ef7I59cV1C7Y4VghRIYF+7FGu1R+Hc+5yfeumjhZT1eiOHE5hTovljq/wOXsvA6rhtTvBnvDajd+bnj8gfrW9aaVpun4NpYQK46SSDzX/NuB+AFWZWSCDz7mWOCH/npK20H6ep9hmsS78Y6XbZW2jnvXH8X+qT8zyfyFdHJQo76s8/2mNxXw6L7jeeV5seZIzAdATkCo64u58a6nKCLbyLQdvKTLf99Nk/lit3wrrEuq6fNFdzNNd2zb97nLNGx9T/db9GFXTxcZSUUrJkVstqQpupJ3aNeaWC2t2uLm4ighDBN0h6k5OOOc4B/KsyXxRosWf9MllI/55QE/+hYrQubRNSsp7GTCrcLtUnorjlW/76x+BNcb4Y0I3eqyPfxEW9k375GH3nzxH+JBJ9gamvVqxmox67F4PD4epSdSputzt0aOa0t541mQzLv2SgAqp+70J5I5x6EUyaaG0t5rq6YrbwLucjqfRR7k4A/PpUpZ55s8tI7dh1JrivF2sC7ulsLZw1rasd7A8SydC3uByB+J71daq6VNJu7ZlhcOsTWbStFE7+O5ix8vTLVR2DPIxH6ioj46ve1jYD/gMh/9mrma0LXQdUvYxJbaddSRkZDCM4P0J6153tqj6s936tRX2Uav/Cc3/wDz6WH/AH7f/wCKq/o3i/7dfpa6hDbQLL8scsYZdr9t2WPB6Z7ZB6Vyd3YXdg4S8tp7dj0EsZXP0z1qDihVqkXe7B4WhKLXKtT1ZlaNirAhgcEHt61Q1zWU0YQSGwkmtplwJVn2kOOqkFfxHsfY1D4b1c6vppjmbN5aqFkJPMkfQP8AUcA/ge5rQurWHUbSayujiGYY3Yz5bD7rj3B/MEivRcnVp80HZngwpww+I9nWV0zGTxppT/6y3vovcbH/AKit90CkAbuVVsMNpGRnBHYjOK4nw/oUh8SyQX0WE08+ZOD0Yg/KvuGOPquTXbfPNN3aR2/Mmpws5zu5vRGmY0aNJqNNasVYpGAxjkkKCwBbHXA6nGR09aSSN42w6Mp9GGK4PxbqC6jrbpE4a3tB5ERHfH3m/Fsn6YqpZ69qlhhbW/nVB/Azb1/75ORWf120npdGyyi8E+azsejyN58flXCrPF/cmUOPyPT8Kxb3wppV5kwrJYynoYjvT/vk8j8CPpWbaeOHGF1GxjkH/PS3PlsPw5U/pXQ2Gp2OrYWxuVaU/wDLCQbJPwB4b8CarnoVtGrMz9jjMLrF3RxWq+GdQ0lDMyLPajrPCdyj/eHVfxA+prI6dK9XV3hfKlkccHt9R/8AWrA1vwpDqAa40uNYbwDJt1GEm/3f7re3Q9sHg4VsK4q8dUdmFzKNVqFRWZw1FKVKsQQQQcEEdKSuU9MKKKKBBRRRQAUUUUAFFFFABRRRQAUUUUAFFFFABTqbTqAG0UUUAFFFFABRRRQAUUUUAFFFFABRRRQAUUUUAFFFFAC54xXY+ENHWC3XVrlA0rk/ZVIyFxwZPrnIH0J7CuNbhc16uYlto4rdOEhiSNR9FA/Xk/jXRhaanPXZanDmNd0qXu7vQUKZCeR0LMzHAA6kknoB1ya5vVvGUNsTDpCrNIODcyLlR/uKev8AvH8qTxpqMlvbW+nxEqlwnnTMON43EKv0BUnHckelcacZ4rTEYhtuEdEjDAYGCgqs9Wya6vLi+nM93PJPKerSNuP/ANYewqCiiuM9YK0ND1Q6Rq0N1gtGp2yqP4kPDD64/UCs+ihO2qE0mrM9XkAB+Vg8ZAZWHRlPIP0IINOkkD52xqhJ3uVH+sc8Fj7kAD8Kx/Ck81x4cj+0KcQSmKFj/GnUj/gJOM++O1a6BTIodtqkgFsZwK9mlJVIKbWp8piKcqNSVJPQyvEOrf2NpZ8psXd0CkWOqJ0Z/r2HuSe1ee9K1fEtzcXPiC7+1RmJ4n8pYs52IvAA9eOc985rJPAJryq1R1JuTPpMLQVGmor5na+FNBhhs49SvIllnl+a3jcZVF6byD1JIOM8ADPXGOikkaVtzsWb1JzSsqxrHHGAESKNVA9Aox+lNxxmvUw9OMILuz53G4idWq03ougrbZIWgmRZoH+9DINyt+HY+4wR61wPibRF0e9Q25LWlwC8JY8rjqh9SOOe4INd7g4zWH40Ct4fhY/eS7Xb+KNn/wBBH5Vji6UXDm6o6ssxE1UVNu6ZyGl6hLpN/FeW+C8Z5U9HU8FT7EZFekpLFPDFc2zFredd8bHrjuD7g5B9xXlldn4HuJ5LK9t5FJtYisiOT92RuCo/3gCfbb71zYWo4zt0Z6GZUFUpOfVHSs+UwI0Dtje4HzPjhc+uASB9aoazqX9kaNNcqcTv+5g/3iOW/wCArk/UrVs1x3jeeY6zHbuNtvDCph/2g3Jf6lsj22gV2Ymfs4WS3PLy+m69ZSm72Vzm+lFFFeUfRhS0lFAzqdF8XyRFLbV2ae3+6s5+aWL0/wB9R6Hn0Ndcw2kYZWUgMrIchgeQQfQjBryntXpGhxyw+HdOjuMiQRlgD1CMxKj8jn6EV3YOpK/I9UePmmHgoe1Wj/MwfG+nKs8OpxqB9pJScAYzIOd3/Agc/UE1ytd14xYDw4gPVrtNv4K+f5iuFPWubERUajS2O7BTdShGUtxKKKKyOkKKKKACiiigAooooAKKKKACiiigAooooAKdTadQA2iiigAooooAKKKKACiiigAooooAKKKKACiiigAooooAU85HrXp2n3q6lpdreKQd8YSTHZ1ADD8eD9CK8x71seHdfbRp3jmVpbOYjzYx1BHRl9x+o49xrQq+znd7dTmxuG+sUnFbrY6zXNFTXLJEVlju4MmBnOFYHqhPbJ5B7HOeDkef3NtNZXL291E8M8ZwyOMEV6hG0dxAlxbSpNbyfdlTofY+hHoeRUd5aW2pQLDf26zoowpJw8f+6w5H05HtXXWw6q+/Te55mFx8sP8Auay0X4Hl/NJXWX3gZvmfTLtZB1EVwQjD6N90/jiufvtKvtNbF7aSwDszL8p+jdD+FcM4Sg7SVj2adWnVV4NMqVPY2ct/fQ2tuMyzOEUH3/p3/CoK67wRYbI7jU3HPNvBn1I+dvwUgf8AAjRTg5yUV1CtUVKm5vodKkEVrBDa23+ogQRoSMZA6t9SST+NSNG6bS6soZdy5HUev0pu+KJJJrglYIlMkjDso5P4np9SK5/w54kl1PU7i0vWAa6kMltk8I//ADzHsVAA9wPWvUlVjScYdPyPnKeGqYmE619V+IvjHSvtdmNShXM1uoScActH0VvqvQ+xHpXE16urbTyqspyrKw4YHgg+xGR+Nee+ItGOjajsi3NaTfPAx/u/3T7qeD+B71yYujyy5lsz1MtxPtYezk9Udd4c1RdW0mNN2bu0jEcqZ5ZBwrj1GMA+hHvWlg9a8ut7ma0nSe2leKaM5V0OCK6GHxxfKgFza2lwwGN5UoT9dpA/QVVHFqCUZLYzxeWupNzpu1+jOxVGkcKilmY8KBnNcf4y1SK4mi0+2cPHbEtI6nIaQ8HHqFAAz6k9qqX/AIu1K+haFDHawuMOtuCpYehYknHtkCsQ47VGIxPtVypWRtgsB7B88ndj4YJbm4jhgRpJZWCIo6sTwBXpljYx6Vp8NjCVbyvmkcf8tJD95vpwAPYCsPwdpP2a3/taZcSygpbA9l6M/wDNR/wI+ldHuRA8kriOGNS8jnnao6n+mO5IFa4Wmop1JfI5syxDnJYeHzFMTrGsjKwRydrEcHFY/inTf7R0VpUGbiyzIuOrRn74/Dhvwaqei+JZNS8SXEM2UgvAEt4yf9Uy/cH1IyD6k5rpEYxyK+AcHlT3HcH2I4rbmWIg1szmdOWArRk3dM8o6Uda0df0waRq81uufJJDwk90bkfiOn1BpbLw5quoKGhs5RGf+Wkg8tP++mwPyzXlWd7dT6LmVua+hmU+KGSeZYoY2kkc4VEBYt9AK62z8ERJhtSvd57xWo/m5/oD9a6K0trbTYzHYW6WykYYpy7fVjyfp09q6KeFnPdWRxVsxo0tE7vyMHRfCKWjrc6uqvKDlLQHcoPbzCP/AEEZ9z2rpf3k838TyOe3UmmhPleRmVI4xl5HO1VHuT0rldd8Wq8b2ekM2xgVluiNpcf3UH8I9zyfYcHrbp4aNlqzzOWvmE03pFfcVPGGrR3l5HaWzh7e0yC6nIkkP3iPUcAA+xPeueoorzZScm292e/CChFRjshKKKKQwooooAKKKKACiiigAooooAKKKKACiiigAp1Np1ADaKKKACiiigAooooAKKKKACiiigAooooAKKKKACiiigAooooAu6ZrF5pEzPZTFN330Ybkf/eU8H+Y7EV12n+LtPvcLeKbGY8E8vEfx+8v45+tcLRV06s6b91mVbD06699fPqerInmQiaFlmiPSSNg6n8RSxyyRghHYK3VQeD+HevLbW8uLKbzbWeWCT+9G5U/pW5beNtRiwLpLe7XuZE2t/30uP1zXZHGpr30eXUymUXelL7zqrnStMvMm5062Zj1aNfLb/x3H65qeKGG1toba1jMcEK7VUnd1OSSe5JJqjomuQa59oVbSa3eBN7N5gdDkgAdAQTk+vQ1pKpkkVFGWPArppKlL34qxwYn6xC1Go2/IqavYy6no72ltcxQSSSAyeYGwyDkAEA9WwfwFcq3gvVYyGhktHKnIKXAUj/vrHNdnEY7kZt7i3mH/TOdG/kamNrOOTBLj12Gsp0KdVuXNr6m9HGV8PBQ5NPQig+1S2EM1/EsV03yTKJFbcw/jGD0br7HPbFV9R06LWNOeylZUYnfDKf+Wcnb8D0P4HtVlhgcgg+4xSVv7NOHJJ3OT28o1fawVvI86fw9rEblW0q9ypwcQMR+YHNJ/YOr/wDQLvv/AAHf/CvRskdzS7j6n865fqP949L+2P7h54vhzWW6aVe/jA1XtK8H3016h1O2ltbRfmlZ8KWA/hHuentya7TOaBRHAq+5Ms3lZ2jZiuwYjCqigBVVRgKo4AHsBgVS1zTLjU7CK0try2ghc77hn3lmI+6uAvQdevJI9KvrDJJ9xHYeyk0ptpUXLoYx6udv866akIyjyt2RwUKlWFT2kVd+aucxB4Jt4XV5NUmLqQwMMIGCPct2+ldNNIskzuAQGOcE/wCep5qtLfWFvnz9RsoyOo88MfyXNMs9V03UZ3gs7zzplQvtEbKCB1wWxyAc/QGs6fsaTtF6s6K/1vERvOOi8i2HKsrAJvUbVfYpYDrgN1Azk/jQ7NI+XYsx7k5NOg2edGJANpODk4x7/Qda4XUvE+tpczWzTraGNzG62yBCCDj733v1p1qsaL21ZOFwtTFJ+/ZI7W4MdnGJLyaK1jPRpm25+g6n8Aawr7xjYW2VsYXvJOzyZjjH4feb/wAdriZJHlcvI7Ox5LMck/iaSuKpi5y0Wh61HLKNPV6sv6prd9q7A3c5aNTlIlG2NPoo4z79fes+iiuZ66s70klZBRRRQAUUUUAFFFFABRRRQAUUUUAFFFFABRRRQAUUUUAFOptOoAbRRRQAUUUUAFFFFABRRRQAUUUUAFFFFABRRRQAUUUUAFFFFABRRRQAUUUvPYZPpQB3nhG1+zeHhMR+8u5TIf8AcX5V/Xeaua1eHTtAvbgHEjJ5MZBx8z8fou4/hVxbcWUFvaDpbxLF+IHP5tk/jXNeOrnbb2FmD13XDj/x1f8A0Fvzr0p/usOl1Z4VP/aMc29l+hx+B6D8qliuri3/ANTPNH/uSFf5VHmivNPeNCPxBq8Q+TVL0D089j/M1t+H/Fk8l39l1i6aWKYgRzSnPkv7n+6eh9OD61ynSinGcotNPYidOFSLjJbnq7o0TsrAq6nBB7GsfxPe6zZ7b/T7k/ZXIWSJYUJhc8DHH3W7eh49M1/Cmuf2hCmm3bf6XGuLdyf9ao6If9oDp6jjqBnoYZXhfdGxVsdRXp6YmF07NHz65sBWakrxZBYf2hBp3lapcGa7lIaRSq4h9FGB17k/h2OVmnhtLeW6vGKW8Iy5HU+ij3J4/XpUigHcSyooBZnc4Cgckk+g61wfiXXf7XuVit9y2MBPlAjBc93PufTsOOuTSqVFh4KMdysPRljazqTVolfU9fvtSu5JWuJoo2PywxyEIi9gB9O/frWaxLHLEsfU0lFeZe+rPoUrLQKu6PfnTNWtbzqsTguPVDww/FSRVKigN9z1mWMRyMgOQpwG9R2P4jmuJ8bWvk6yl0B8t3EHJ/2x8rfngH8a6fR7k3ugWE5OX8rynJ/vJ8v8gD+NZ/jK28/QYpwPmtrjk/7LjB/VR+dejX/eUVL0PBwTdDFypPZ3OFooorzj3QooooAKKKKACiiigAooooAKKKKACiiigAooooAKKKKACiiigAp1Np1ADaKKKACiiigAooooAKKKKACiiigAooooAKKKKACiiigAooooAKKKKACr+h2wvNesICMq9wmR7bsn9M1R7VteEFB8U2X+yWYfgjGhK7SFJ2i2d68hkkdz1Ylj+NcJ4ymMviWdO0CRxD8FGf1JruB2FeeeIWMniTU2PX7VIPyYivQxrtFI8XKFec5MzaKKK889sWgjFKAWIVQSzHAAGcnt+NdtoHhZdOK3WqIr3Y5jtyMiL3f1b/Z6Dvk8VVOm5u0UZ1q0KMeabsReGPDf2XytS1FP3vD21uw6dw7/AMwvfqeMZ6T5pHJ5ZmOT3z604LJPN/E8jHJJOTXK+IPFjQv9j0WcrtYGW7jPLkfwof7oPf8Ai+nX0bww0Lbtnh2q5jUvtFfgdOUjlhkhmjWWCVdkkZONy9fwOQDnsQDXBeIPD8uizCSMtNYyn91KRyD/AHG9GH5HqPbrNC12PXYSpCR38a5khAwJAP40/mV7dRx00SqSQyQzRpLDKNskTjIYf4jrkcjqKVSEcTHmjuOjWqYCo6dRXi/6ueVUldB4g8LyaYrXVkWnsCeSfvw+gf2/2uh9jxWBXnNOLs1ZnvQnGcVKLumJRRRSGdt4Jm8zRLqEnmG4DD2Dr/ilamrxC40DUoz/AM+5cfVSG/8AZTWH4EJxqa9tkbfkxH9TXTSgPaXSno1vKD/37avRo+9h2n0PCxXuY6LXWx5XRQOlFece8FFFFAgooooAKKKKACiiigAooooAKKKKACiiigAooooAKKKKACnU2nUANooooAKKKKACiiigAooooAKKKKACiiigAooooAKKKKACiiigAooooAK1vC84t/E2nsxwpmCE+m75f/ZqyacpZGDKSrKcgjsaL21Bq6sepkEZB4I4PtXB+LbY2/iW8OCEnbz0PqH5/nkfhXcWeoJq2nxX8eP33+tA/gkH3h+J5HsRTL7TrPVIUjvoDJ5efLdG2OmeoB9O+CD+FenWg69NSifP4SssHWlCpseZc96v6Vod9rDkWkOY1OHmc7Y0+revsMn2rtLfw3o9q4ZbJpmHT7RKXA/4CMA/jmtQyMUVOAiD5UUBVX6AcD8Kwp4KbfvOyO2tmtKKtTV2Z2kaJZ6GA8B8+773LDG3/cH8I/2jyfatADIZtyoiDc7udqqPUnsKgv7210qES6hL5YIykSjMkn0X0/2jgfXpXD634kudZ/dYFvZqcrAjZyfVj/Ef0HYCtp1qdBcsFdnJTw1bGy9pWdl/Wxf8Q+KRdJJY6YzLbN8ssxG1pvYf3V9up7+lcz2opK86UnN3buz3KdONOKjBWSHxSyW8ySxO0csbBldDgqR3B9a73QvEUWshYLnZDqPQY+VLj6f3W/2eh7c8VwB5o+tVTqSpu8SK9CFePLNHq4donOMgjKkEZ+oIPbtg1zur+EILwmfSSlvOeTbMcRv/ALjH7p/2Tx6EdKq6N4xKBbbWN8sYG1blRukX/eH8YHr94e/SupTbLAs8MiTQP92WM7lP+B9jg+1egpUsRHXRniuOIwErx1izzC5tJ7KdoLqF4ZV6pIu0j/63vUVepzLHdQCG6hiuYh0SVd236Hqv4YrNbwtojvu+yTr3KrckKfzGf1rnlg5p6andTzWjJe/dMo+CLd49MvrphhZZEiTPfblm/LcorcvpRb6VfzE42WsmPqV2j9WFSokcMUcMMaxQxDakaDhR/iTk5OSc1g+M9RW209NNU/vrgrJKB/DGOVB92OD9APWt2vYUGnuzhjL63jFOOy/Q4iiiivNPfCiiigAooooAKKKKACiiigAooooAKKKKACiiigAooooAKKKKACnU2nUANooooAKKKKACiiigAooooAKKKKACiiigAooooAKKKKACiiigAooooAKKKKANHSdaudFnaS2KtG4xLE4ykg9/ceowR611dt4v0m4AMy3No/dSnmr+BHOPqK4OlrSnWnT+FmNbDUq3xrU7+XxZosQys1zOfRIMZ/FiP61j3vje4cFdNt0tB/z1c+ZJ+GeF/AZ965iiqniKk1ZsingqFJ3jHXzHSzSXEzSzyPJI5yzuSxb6k0yiisTpCiiigAooooAKuadql5pcxksrhomPDKOVb6qeCPrVOigfkdhZ+OInAGo2JDd5LVuD/wAAb+hH0rQHirRCM/ablT/dNtz+hrgOPWj9a2jiaqVkzjngMPN3cbeh2V943giRl0y3dpe01yBhfcIM5P1OPY1yE88tzcPNPI0ksjFndjksT60yis51JTd5O50UqMKStBWEoooqSwooooAKKKKACiiigAooooAKKKKACiiigAooooAKKKKACiiigAp1Np1ADaKKKACiiigAooooAKKKKACiiigAooooAKKKKACiiigAooooAKKKKACiiigAooooAKKKKACiiigAooooAKKKKACiiigAooooAKKKKACiiigAooooAKKKKACiiigAooooAKKKKACiiigAooooAKKKKACiiigAp1Np1ADaKKKACiiigAooooAKKKKACiiigAooooAKKKKACiiigAooooAKKKKACiiigAooooAKKKKACiiigAooooAKKKKACiiigAooooAKKKKACiiigAooooAKKKKACiiigAooooAKKKKACiiigAooooAKKKKACiiigAp1Np1ADaKKKACiiigAooooAKKKKACiiigAooooAKKKKACiiigAooooAKKKKACiiigAooooAKKKKACiiigAooooAKKKKACiiigAooooAKKKKACiiigAooooAKKKKACiiigAooooAKKKKACiiigAooooAKKKKACiiigAp1Np1ADaKKKACiiigAooooAKKKKACiiigAooooAKKKKACiiigAooooAKKKKACiiigAooooAKKKKACiiigAooooAKKKKACiiigAooooAKKKKACiiigAooooAKKKKACiiigAooooAKKKKACiiigAooooAKKKKACiiigAp1Np1ADaKKKACiiigAooooAKKKKACiiigAooooAKKKKACiiigAooooAKKKKACiiigAooooAKKKKACiiigAooooAKKKKACiiigAooooAKKKKACiiigAooooAKKKKACiiigAooooAKKKKACiiigAooooAKKKKACiiigAp1Np1ADaKKKACiiigAooooAKKKKACiiigAooooAKKKKACiiigAooooAKKKKACiiigAooooAKKKKACiiigAooooAKKKKACiiigAooooAKKKKACiiigAooooAKKKKACiiigAooooAKKKKACiiigAooooAKKKKACiiigAp1Np1ADaKKKACiiigAooooAKKKKACiiigAooooAKKKKACiiigAooooAKKKKACiiigAooooAKKKKACiiigAooooAKKKKACiiigAooooAKKKKACiiigAooooAKKKKACiiigAooooAKKKKACiiigAooooAKKKKACiiigAp1Np1ADaKKKACiiigAooooAKKKKACiiigAooooAKKKKACiiigAooooAKKKKACiiigAooooAKKKKACiiigAooooAKKKKACiiigAooooAKKKKACiiigAooooAKKKKACiiigAooooAKKKKACiiigAooooAKKKKACiiigAp1Np1ADaKluP8Aj5l/3z/OmUANop1FADaKdRQA2inUUANop1FADaKdRQA2inUUANop1FADaKdRQA2inUUANop1FADaKdRQA2inUUANop1FADaKdRQA2inUUANop1FADaKdRQA2inUUANop1FADaKdRQA2inUUANop1FADaKdRQA2inUUANop1FADaKdRQA2inUUANop1FADadRW9bf8esX+4P5UhpH/9k=" parent="1" vertex="1">
          <mxGeometry x="-30.000000000000007" y="319.75" width="82.5" height="82.5" as="geometry" />
        </mxCell>
        <mxCell id="mFckDLMdOMnbUKS1tV6z-9" value="" style="group" vertex="1" connectable="0" parent="1">
          <mxGeometry x="710" y="130" width="50.120000000000005" height="57.64852490606316" as="geometry" />
        </mxCell>
        <mxCell id="mFckDLMdOMnbUKS1tV6z-10" value="" style="shape=image;verticalLabelPosition=bottom;labelBackgroundColor=default;verticalAlign=top;aspect=fixed;imageAspect=0;image=https://upload.wikimedia.org/wikipedia/commons/thumb/b/ba/Database-postgres.svg/1448px-Database-postgres.svg.png;container=0;" vertex="1" parent="mFckDLMdOMnbUKS1tV6z-9">
          <mxGeometry x="13.99735211811253" width="36.12264788188748" height="51.04120428447361" as="geometry" />
        </mxCell>
        <mxCell id="mFckDLMdOMnbUKS1tV6z-11" value="" style="sketch=0;aspect=fixed;html=1;points=[];align=center;image;fontSize=12;image=img/lib/mscae/Docker.svg;fillColor=none;container=0;" vertex="1" parent="mFckDLMdOMnbUKS1tV6z-9">
          <mxGeometry y="36.67969348659003" width="25.571745633503813" height="20.968831419473126" as="geometry" />
        </mxCell>
        <mxCell id="mFckDLMdOMnbUKS1tV6z-12" style="edgeStyle=orthogonalEdgeStyle;rounded=0;orthogonalLoop=1;jettySize=auto;html=1;entryX=1;entryY=0.5;entryDx=0;entryDy=0;shape=link;flowAnimation=1;" edge="1" parent="mFckDLMdOMnbUKS1tV6z-9" source="Jx5W27o9Ek6RV-WZzhhY-138">
          <mxGeometry relative="1" as="geometry">
            <mxPoint x="-206.10000000000002" y="45.07000000000005" as="sourcePoint" />
            <mxPoint x="-6.019999999999641" y="38.09060214223689" as="targetPoint" />
            <Array as="points" />
          </mxGeometry>
        </mxCell>
      </root>
    </mxGraphModel>
  </diagram>
</mxfile>
